<svg xmlns="http://www.w3.org/2000/svg" xmlns:xlink="http://www.w3.org/1999/xlink" width="500" zoomAndPan="magnify" viewBox="0 0 375 374.999991" height="500" preserveAspectRatio="xMidYMid meet" version="1.0"><defs><filter x="0%" y="0%" width="100%" height="100%" id="874dd8d558"><feColorMatrix values="0 0 0 0 1 0 0 0 0 1 0 0 0 0 1 0 0 0 1 0" color-interpolation-filters="sRGB"/></filter><g/><mask id="e989393103"><g filter="url(#874dd8d558)"><rect x="-37.5" width="450" fill="#000000" y="-37.499999" height="449.999989" fill-opacity="0.48"/></g></mask><clipPath id="b0eed68b6f"><rect x="0" width="237" y="0" height="191"/></clipPath></defs><rect x="-37.5" width="450" fill="#ffffff" y="-37.499999" height="449.999989" fill-opacity="1"/><rect x="-37.5" width="450" fill="#ffffff" y="-37.499999" height="449.999989" fill-opacity="1"/><g mask="url(#e989393103)"><g transform="matrix(1, 0, 0, 1, 37, 71)"><g clip-path="url(#b0eed68b6f)"><path fill="#dc680b" d="M 114.179688 44.5625 C 114.179688 44.5625 103.1875 31.605469 77.316406 43.445312 C 77.316406 43.445312 18.085938 37.835938 9.332031 86.246094 C 9.332031 86.246094 0.519531 124.890625 21.703125 148.320312 C 21.703125 148.320312 36.613281 165.828125 53.710938 161.960938 C 53.710938 161.960938 69.242188 185.007812 97.675781 167.675781 C 97.675781 167.675781 121.332031 190.039062 145.429688 166.796875 C 145.429688 166.796875 167.84375 183 188.023438 161.339844 C 188.023438 161.339844 220.835938 162.550781 230.671875 116.984375 C 230.671875 116.984375 235.996094 89.621094 225.828125 70.15625 C 225.828125 70.15625 208.660156 31.375 159.910156 44.46875 C 159.910156 44.46875 135.613281 30.703125 125.183594 43.402344 Z M 114.179688 44.5625 " fill-opacity="1" fill-rule="nonzero"/><path fill="#f28127" d="M 78.628906 51.40625 C 57.363281 53.964844 49.117188 61.773438 49.117188 61.773438 C 46.410156 64.683594 50.929688 64.90625 50.929688 64.90625 C 53.171875 65.074219 63.917969 62.101562 63.917969 62.101562 C 98.125 52.5625 92.613281 62.75 92.613281 62.75 C 89.882812 68.695312 90.566406 76.757812 90.566406 76.757812 C 91.4375 85.191406 97.691406 79.34375 97.691406 79.34375 C 101.039062 75.375 102.578125 72.121094 104.347656 69.109375 C 108.308594 62.359375 110.285156 61.070312 110.285156 61.070312 C 121.007812 52.378906 137.132812 68.121094 137.132812 68.121094 C 145.328125 75.019531 143.839844 69.132812 143.839844 69.132812 C 141.582031 59.34375 149.023438 60.804688 149.023438 60.804688 C 159.03125 61.761719 171 62.390625 171 62.390625 C 180.398438 62.0625 172.042969 52.191406 172.042969 52.191406 C 166.304688 43.820312 178.933594 44.640625 178.933594 44.640625 C 225.015625 47.636719 229.195312 90.089844 229.195312 90.089844 C 231 102.058594 228.828125 112.332031 224.121094 121.816406 C 215.074219 140.054688 199.582031 150.390625 206.570312 132.941406 C 207.292969 131.140625 213.917969 111.34375 212.785156 98.019531 C 212.191406 91.050781 207.683594 83.820312 207.683594 83.820312 C 203.003906 75.164062 196.199219 71.5625 196.199219 71.5625 C 187.660156 68.316406 192.03125 76.542969 192.03125 76.542969 C 195.75 82.152344 199.09375 89.746094 199.09375 89.746094 C 207.511719 113.207031 193.863281 139.015625 193.863281 139.015625 C 183.683594 156.121094 168.855469 161.15625 168.855469 161.15625 C 146.511719 168.46875 157.519531 145.039062 157.519531 145.039062 C 166.273438 128.003906 165.871094 114.089844 165.871094 114.089844 C 166.035156 88.914062 154.675781 77.199219 154.675781 77.199219 C 146.578125 70.324219 148.5 82.578125 148.5 82.578125 C 154.152344 113.207031 145.167969 142.019531 145.167969 142.019531 C 138.492188 161.078125 127.617188 162.703125 127.617188 162.703125 C 112.238281 166.617188 100.710938 141.050781 100.710938 141.050781 C 92.847656 124.359375 95.085938 92.734375 95.085938 92.734375 C 95.589844 85.089844 91.933594 86.722656 91.933594 86.722656 C 86.925781 89.179688 83.664062 103.675781 83.664062 103.675781 C 78.324219 123.476562 80.261719 154.394531 80.261719 154.394531 C 80.679688 162.261719 68.324219 155.445312 68.324219 155.445312 C 47.34375 141.871094 43.570312 111.6875 43.570312 111.6875 C 41.695312 98.457031 49.539062 81.851562 49.539062 81.851562 C 55 71.621094 50.085938 73.566406 46.546875 75.863281 C 44.957031 76.890625 43.683594 78.128906 43.683594 78.128906 C 27.257812 94.625 34.058594 121.535156 34.058594 121.535156 C 37.832031 140.382812 29.8125 141.46875 29.8125 141.46875 C 23.609375 142.199219 17.511719 132.507812 17.511719 132.507812 C 4.335938 110.636719 13.246094 82.25 13.246094 82.25 C 21.199219 59.28125 41.515625 50.625 41.515625 50.625 C 66.761719 39.214844 80.183594 48.804688 80.183594 48.804688 C 83.917969 50.9375 78.628906 51.402344 78.628906 51.402344 Z M 97.460938 46.300781 C 102.320312 46.386719 107.675781 47.859375 109.597656 43.933594 C 110.308594 42.488281 107.972656 39.675781 99.835938 39.523438 C 91.75 39.367188 81.78125 41.304688 81.753906 42.902344 C 81.726562 44.503906 92.601562 46.21875 97.460938 46.304688 Z M 140.132812 48.609375 C 146.144531 49.328125 156.546875 46.621094 156.753906 44.972656 C 156.964844 43.320312 148.414062 38.21875 139.269531 38.367188 C 133.214844 38.464844 128.558594 41.269531 128.351562 42.921875 C 128.140625 44.574219 134.125 47.890625 140.132812 48.609375 Z M 140.132812 48.609375 " fill-opacity="1" fill-rule="nonzero"/><path fill="#ffa054" d="M 53.332031 89 C 55.601562 71.816406 69.816406 62.492188 77.5 62.660156 C 87.675781 62.886719 79.820312 75.367188 74.558594 91.917969 C 69.296875 108.46875 75.167969 142.027344 67.765625 140.011719 C 60.363281 137.992188 50.542969 110.117188 53.332031 89 Z M 17.59375 96.167969 C 21.457031 99.007812 27.167969 88.207031 34.144531 76.351562 C 40.617188 65.351562 50.128906 56.785156 46.265625 53.945312 C 42.398438 51.109375 31.710938 57.046875 23.222656 67.890625 C 14.730469 78.730469 13.730469 93.328125 17.59375 96.167969 Z M 124.882812 149.453125 C 136.160156 149.644531 137.964844 114.636719 138.28125 96.257812 C 138.597656 77.878906 131.78125 67.523438 120.503906 67.328125 C 109.226562 67.132812 107.03125 80.941406 105.773438 99.28125 C 104.648438 115.625 113.605469 149.257812 124.882812 149.453125 Z M 174.203125 95.558594 C 184.800781 115.324219 160.949219 144.15625 170.386719 144.851562 C 176.929688 145.332031 207.589844 110.890625 190.5 83.453125 C 183.703125 72.542969 166.511719 65.875 160.839844 69.0625 C 155.167969 72.25 163.070312 77.847656 171.042969 90.136719 M 202.9375 64.988281 C 209.542969 69.015625 217.847656 84.300781 219.539062 82.007812 C 221.226562 79.714844 214.503906 63.132812 207.898438 59.105469 C 201.292969 55.078125 189.25 52.5 187.558594 54.796875 C 185.867188 57.089844 196.332031 60.960938 202.9375 64.988281 Z M 140.773438 45.632812 C 145.429688 45.59375 152.882812 45.664062 152.871094 44.339844 C 152.855469 43.015625 144.707031 39.277344 140.050781 39.316406 C 135.394531 39.355469 131.238281 41.550781 131.25 42.875 C 131.265625 44.199219 136.117188 45.671875 140.773438 45.632812 Z M 97.039062 43.871094 C 101.347656 43.945312 105.613281 48.726562 108.492188 43.929688 C 109.09375 42.929688 106.019531 40.207031 101.707031 40.132812 C 97.398438 40.058594 85.558594 42.125 85.542969 43.035156 C 85.527344 43.949219 92.726562 43.796875 97.039062 43.871094 Z M 97.039062 43.871094 " fill-opacity="1" fill-rule="nonzero"/><path fill="#472c11" d="M 137.023438 2.816406 C 137.023438 2.816406 120.074219 6.140625 113.875 39.511719 C 113.875 39.511719 113.371094 42.195312 112.207031 44.097656 C 111.222656 45.703125 109.679688 46.714844 107.40625 47.402344 C 107.40625 47.402344 104.917969 48.214844 99.292969 47.816406 C 92.445312 47.332031 82.886719 44.160156 79.628906 44.34375 C 79.074219 44.375 79.398438 44.5 79.53125 44.535156 C 79.53125 44.535156 96.386719 50.449219 90.496094 51.519531 C 90.496094 51.519531 85.046875 50.871094 68.855469 56.144531 C 68.054688 56.402344 67.140625 56.839844 69.351562 56.34375 C 69.351562 56.34375 95.613281 51.285156 96.828125 59.140625 C 96.828125 59.140625 97.148438 60.84375 95.191406 65.292969 C 95.191406 65.292969 92.640625 71.117188 95.125 66.625 C 97.609375 62.128906 104.5625 56.992188 114.460938 55.46875 C 114.460938 55.46875 124.554688 52.796875 132.320312 60.386719 C 132.320312 60.386719 136.800781 64.5625 141.664062 69.757812 C 143.234375 71.4375 142.484375 70.042969 141.785156 69.078125 C 141.785156 69.078125 129.042969 54.28125 141.445312 54.449219 C 141.445312 54.449219 154.351562 54.328125 166.707031 57.253906 C 167.039062 57.332031 170.1875 58.066406 164.28125 55.847656 C 164.28125 55.847656 153.246094 51.679688 159.894531 44.601562 C 159.945312 44.546875 159.746094 44.65625 159.609375 44.746094 C 159.609375 44.746094 148.71875 52.089844 133.726562 47.761719 C 133.726562 47.761719 125.253906 44.90625 125.960938 39.929688 C 125.960938 39.929688 126.042969 27.355469 151.640625 17.113281 C 151.640625 17.113281 157.511719 15.824219 153 9.960938 C 153 9.960938 144.597656 0.296875 137.023438 2.816406 Z M 137.023438 2.816406 " fill-opacity="1" fill-rule="nonzero"/><path fill="#644220" d="M 126.796875 11.492188 C 129.746094 8.320312 134.460938 3.761719 137.230469 4.398438 C 138.664062 4.730469 137.273438 8.773438 139.933594 10.648438 C 144.285156 13.722656 148.117188 12.40625 149.089844 14.128906 C 150.867188 17.273438 137.828125 13.214844 129.910156 20.773438 C 122.425781 27.917969 120.574219 33.476562 118.667969 36.921875 C 117.566406 38.914062 115.714844 42.304688 115.519531 41.136719 C 115.058594 38.335938 119.816406 18.984375 126.796875 11.492188 Z M 115.761719 53.109375 C 122.839844 52 122.429688 42.386719 119.699219 42.757812 C 118.308594 42.941406 118.027344 45.492188 114.984375 47.15625 C 114.324219 47.515625 109.605469 48.1875 104.988281 48.859375 C 99.671875 49.632812 94.484375 50.410156 95.785156 50.726562 C 102.191406 52.277344 97.296875 58.492188 99.082031 59.304688 C 99.984375 59.714844 108.683594 54.21875 115.761719 53.109375 Z M 115.761719 53.109375 " fill-opacity="0.297" fill-rule="nonzero"/></g></g></g><g fill="#000000" fill-opacity="1"><g transform="translate(48.720477, 180.019115)"><g><path d="M 39.03125 -42.6875 C 40.425781 -42.5 41.425781 -41.84375 42.03125 -40.71875 C 42.644531 -39.59375 42.953125 -38.535156 42.953125 -37.546875 C 42.953125 -36.960938 42.859375 -36.476562 42.671875 -36.09375 C 42.492188 -35.707031 42.226562 -35.515625 41.875 -35.515625 C 41.644531 -35.515625 41.414062 -35.609375 41.1875 -35.796875 C 40.875 -36.015625 40.242188 -36.179688 39.296875 -36.296875 C 38.359375 -36.410156 37.234375 -36.46875 35.921875 -36.46875 C 34.523438 -36.46875 32.945312 -36.398438 31.1875 -36.265625 C 29.4375 -36.128906 27.59375 -35.925781 25.65625 -35.65625 C 26.289062 -34.9375 26.609375 -34.328125 26.609375 -33.828125 C 26.609375 -33.554688 26.519531 -33.332031 26.34375 -33.15625 C 25.257812 -31.894531 24.007812 -30.21875 22.59375 -28.125 C 21.175781 -26.03125 19.722656 -23.769531 18.234375 -21.34375 C 20.441406 -21.65625 22.429688 -21.898438 24.203125 -22.078125 C 25.984375 -22.265625 27.144531 -22.359375 27.6875 -22.359375 C 28.71875 -22.359375 29.484375 -21.882812 29.984375 -20.9375 C 30.484375 -19.988281 30.734375 -19.109375 30.734375 -18.296875 C 30.734375 -17.847656 30.664062 -17.488281 30.53125 -17.21875 C 30.394531 -16.945312 30.164062 -16.835938 29.84375 -16.890625 C 28.90625 -16.929688 27.601562 -16.894531 25.9375 -16.78125 C 24.269531 -16.664062 22.46875 -16.503906 20.53125 -16.296875 C 18.59375 -16.097656 16.703125 -15.863281 14.859375 -15.59375 C 13.097656 -12.445312 11.539062 -9.421875 10.1875 -6.515625 C 8.84375 -3.609375 7.945312 -1.300781 7.5 0.40625 C 7.5 0.851562 7.226562 1.078125 6.6875 1.078125 C 6.1875 1.078125 5.550781 0.851562 4.78125 0.40625 C 4.019531 -0.0390625 3.359375 -0.671875 2.796875 -1.484375 C 2.234375 -2.296875 1.953125 -3.195312 1.953125 -4.1875 C 1.953125 -5.132812 2.320312 -6.53125 3.0625 -8.375 C 3.8125 -10.21875 4.75 -12.242188 5.875 -14.453125 C 5.5625 -14.804688 5.28125 -15.234375 5.03125 -15.734375 C 4.78125 -16.234375 4.679688 -16.726562 4.734375 -17.21875 C 4.734375 -17.625 5.09375 -18.003906 5.8125 -18.359375 C 6.53125 -18.722656 7.472656 -19.0625 8.640625 -19.375 C 10.347656 -22.300781 12.160156 -25.148438 14.078125 -27.921875 C 15.992188 -30.691406 17.738281 -32.910156 19.3125 -34.578125 C 16.882812 -34.035156 14.507812 -33.390625 12.1875 -32.640625 C 9.875 -31.898438 7.722656 -31.035156 5.734375 -30.046875 C 5.421875 -29.828125 5.085938 -29.71875 4.734375 -29.71875 C 4.140625 -29.71875 3.84375 -30.117188 3.84375 -30.921875 C 3.84375 -31.421875 3.988281 -31.992188 4.28125 -32.640625 C 4.582031 -33.296875 5.023438 -33.921875 5.609375 -34.515625 C 7.003906 -35.910156 8.894531 -37.125 11.28125 -38.15625 C 13.664062 -39.1875 16.273438 -40.050781 19.109375 -40.75 C 21.941406 -41.445312 24.765625 -41.972656 27.578125 -42.328125 C 30.398438 -42.691406 32.957031 -42.875 35.25 -42.875 C 36.6875 -42.875 37.945312 -42.8125 39.03125 -42.6875 Z M 39.03125 -42.6875 "/></g></g></g><g fill="#000000" fill-opacity="1"><g transform="translate(79.173393, 180.019115)"><g><path d="M 30.59375 -29.515625 C 31.21875 -29.515625 31.867188 -29.285156 32.546875 -28.828125 C 33.222656 -28.378906 33.796875 -27.882812 34.265625 -27.34375 C 34.742188 -26.8125 34.984375 -26.363281 34.984375 -26 C 34.984375 -25.769531 34.894531 -25.566406 34.71875 -25.390625 C 33.851562 -24.304688 32.90625 -22.929688 31.875 -21.265625 C 30.84375 -19.609375 29.828125 -17.8125 28.828125 -15.875 C 27.835938 -13.9375 26.9375 -12 26.125 -10.0625 C 25.320312 -8.125 24.671875 -6.320312 24.171875 -4.65625 C 23.679688 -2.988281 23.4375 -1.59375 23.4375 -0.46875 C 23.4375 -0.0195312 23.1875 0.203125 22.6875 0.203125 C 22.195312 0.203125 21.566406 -0.03125 20.796875 -0.5 C 20.035156 -0.976562 19.359375 -1.632812 18.765625 -2.46875 C 18.179688 -3.300781 17.890625 -4.234375 17.890625 -5.265625 C 17.890625 -6.117188 18.054688 -7.109375 18.390625 -8.234375 C 18.734375 -9.359375 19.128906 -10.53125 19.578125 -11.75 C 18.273438 -9.863281 16.847656 -8.019531 15.296875 -6.21875 C 13.742188 -4.414062 12.15625 -2.925781 10.53125 -1.75 C 8.914062 -0.582031 7.316406 0 5.734375 0 C 3.984375 0 2.710938 -0.503906 1.921875 -1.515625 C 1.140625 -2.523438 0.75 -3.820312 0.75 -5.40625 C 0.75 -7.15625 1.140625 -9.125 1.921875 -11.3125 C 2.710938 -13.5 3.816406 -15.691406 5.234375 -17.890625 C 6.648438 -20.097656 8.269531 -22.125 10.09375 -23.96875 C 11.914062 -25.820312 13.875 -27.320312 15.96875 -28.46875 C 18.0625 -29.613281 20.191406 -30.1875 22.359375 -30.1875 C 24.015625 -30.1875 25.171875 -29.742188 25.828125 -28.859375 C 26.484375 -27.984375 26.832031 -27.03125 26.875 -26 C 27.726562 -27.082031 28.484375 -27.9375 29.140625 -28.5625 C 29.796875 -29.195312 30.28125 -29.515625 30.59375 -29.515625 Z M 9.71875 -6.34375 C 10.757812 -6.34375 12.472656 -7.691406 14.859375 -10.390625 C 17.242188 -13.097656 20.125 -16.703125 23.5 -21.203125 L 24.78125 -23.09375 C 24.820312 -23.226562 24.84375 -23.363281 24.84375 -23.5 C 24.84375 -23.632812 24.84375 -23.75 24.84375 -23.84375 C 24.84375 -24.5625 24.640625 -25.144531 24.234375 -25.59375 C 23.835938 -26.039062 23.410156 -26.265625 22.953125 -26.265625 C 21.960938 -26.265625 20.835938 -25.757812 19.578125 -24.75 C 18.316406 -23.738281 17.066406 -22.441406 15.828125 -20.859375 C 14.597656 -19.285156 13.453125 -17.628906 12.390625 -15.890625 C 11.335938 -14.160156 10.484375 -12.539062 9.828125 -11.03125 C 9.171875 -9.53125 8.84375 -8.351562 8.84375 -7.5 C 8.84375 -6.726562 9.132812 -6.34375 9.71875 -6.34375 Z M 9.71875 -6.34375 "/></g></g></g><g fill="#000000" fill-opacity="1"><g transform="translate(108.816037, 180.019115)"><g><path d="M 6.546875 -0.265625 C 6.546875 0.179688 6.300781 0.40625 5.8125 0.40625 C 5.3125 0.40625 4.675781 0.171875 3.90625 -0.296875 C 3.144531 -0.773438 2.472656 -1.429688 1.890625 -2.265625 C 1.304688 -3.097656 1.015625 -4.03125 1.015625 -5.0625 C 1.015625 -6.28125 1.335938 -7.84375 1.984375 -9.75 C 2.640625 -11.664062 3.507812 -13.78125 4.59375 -16.09375 C 5.675781 -18.414062 6.898438 -20.789062 8.265625 -23.21875 C 9.640625 -25.65625 11.046875 -28 12.484375 -30.25 C 13.929688 -32.5 15.328125 -34.523438 16.671875 -36.328125 C 18.023438 -38.128906 19.242188 -39.554688 20.328125 -40.609375 C 21.410156 -41.671875 22.242188 -42.203125 22.828125 -42.203125 C 23.503906 -42.203125 24.164062 -41.988281 24.8125 -41.5625 C 25.46875 -41.132812 26.007812 -40.648438 26.4375 -40.109375 C 26.863281 -39.566406 27.078125 -39.070312 27.078125 -38.625 C 27.078125 -38.351562 26.988281 -38.148438 26.8125 -38.015625 C 25.28125 -36.398438 23.671875 -34.421875 21.984375 -32.078125 C 20.296875 -29.734375 18.628906 -27.195312 16.984375 -24.46875 C 15.335938 -21.75 13.804688 -18.957031 12.390625 -16.09375 C 10.972656 -13.238281 9.753906 -10.445312 8.734375 -7.71875 C 7.722656 -5 6.992188 -2.515625 6.546875 -0.265625 Z M 6.546875 -0.265625 "/></g></g></g><g fill="#000000" fill-opacity="1"><g transform="translate(122.050565, 180.019115)"><g><path d="M 6.546875 -0.265625 C 6.546875 0.179688 6.300781 0.40625 5.8125 0.40625 C 5.3125 0.40625 4.675781 0.171875 3.90625 -0.296875 C 3.144531 -0.773438 2.472656 -1.429688 1.890625 -2.265625 C 1.304688 -3.097656 1.015625 -4.03125 1.015625 -5.0625 C 1.015625 -6.28125 1.335938 -7.84375 1.984375 -9.75 C 2.640625 -11.664062 3.507812 -13.78125 4.59375 -16.09375 C 5.675781 -18.414062 6.898438 -20.789062 8.265625 -23.21875 C 9.640625 -25.65625 11.046875 -28 12.484375 -30.25 C 13.929688 -32.5 15.328125 -34.523438 16.671875 -36.328125 C 18.023438 -38.128906 19.242188 -39.554688 20.328125 -40.609375 C 21.410156 -41.671875 22.242188 -42.203125 22.828125 -42.203125 C 23.503906 -42.203125 24.164062 -41.988281 24.8125 -41.5625 C 25.46875 -41.132812 26.007812 -40.648438 26.4375 -40.109375 C 26.863281 -39.566406 27.078125 -39.070312 27.078125 -38.625 C 27.078125 -38.351562 26.988281 -38.148438 26.8125 -38.015625 C 25.28125 -36.398438 23.671875 -34.421875 21.984375 -32.078125 C 20.296875 -29.734375 18.628906 -27.195312 16.984375 -24.46875 C 15.335938 -21.75 13.804688 -18.957031 12.390625 -16.09375 C 10.972656 -13.238281 9.753906 -10.445312 8.734375 -7.71875 C 7.722656 -5 6.992188 -2.515625 6.546875 -0.265625 Z M 6.546875 -0.265625 "/></g></g></g><g fill="#000000" fill-opacity="1"><g transform="translate(48.720477, 228.066971)"><g/></g></g><g fill="#000000" fill-opacity="1"><g transform="translate(62.973643, 228.066971)"><g><path d="M 45.515625 -38.625 C 45.515625 -37.726562 45.019531 -36.320312 44.03125 -34.40625 C 43.039062 -32.488281 41.6875 -30.28125 39.96875 -27.78125 C 38.257812 -25.289062 36.300781 -22.679688 34.09375 -19.953125 C 31.894531 -17.234375 29.578125 -14.566406 27.140625 -11.953125 C 24.710938 -9.335938 22.296875 -6.984375 19.890625 -4.890625 C 17.484375 -2.796875 15.1875 -1.117188 13 0.140625 C 10.8125 1.398438 8.882812 2.03125 7.21875 2.03125 C 5.695312 2.03125 4.492188 1.46875 3.609375 0.34375 C 2.734375 -0.78125 2.296875 -2.289062 2.296875 -4.1875 C 2.296875 -5.988281 2.644531 -8.054688 3.34375 -10.390625 C 4.039062 -12.734375 4.925781 -15.195312 6 -17.78125 C 7.082031 -20.375 8.242188 -22.921875 9.484375 -25.421875 C 10.722656 -27.921875 11.882812 -30.238281 12.96875 -32.375 C 14.050781 -34.519531 14.941406 -36.34375 15.640625 -37.84375 C 16.335938 -39.351562 16.6875 -40.359375 16.6875 -40.859375 C 16.550781 -41.210938 16.484375 -41.503906 16.484375 -41.734375 C 16.484375 -42.492188 17 -42.875 18.03125 -42.875 C 18.789062 -42.875 19.578125 -42.625 20.390625 -42.125 C 21.203125 -41.632812 21.878906 -40.992188 22.421875 -40.203125 C 22.960938 -39.421875 23.234375 -38.535156 23.234375 -37.546875 C 23.234375 -36.921875 22.914062 -35.882812 22.28125 -34.4375 C 21.65625 -33 20.832031 -31.300781 19.8125 -29.34375 C 18.800781 -27.382812 17.742188 -25.3125 16.640625 -23.125 C 15.535156 -20.945312 14.476562 -18.796875 13.46875 -16.671875 C 12.457031 -14.554688 11.632812 -12.609375 11 -10.828125 C 10.375 -9.054688 10.0625 -7.628906 10.0625 -6.546875 C 10.0625 -5.554688 10.332031 -5.0625 10.875 -5.0625 C 11.632812 -5.0625 12.734375 -5.703125 14.171875 -6.984375 C 15.617188 -8.273438 17.253906 -9.976562 19.078125 -12.09375 C 20.898438 -14.207031 22.789062 -16.554688 24.75 -19.140625 C 26.707031 -21.734375 28.597656 -24.34375 30.421875 -26.96875 C 32.242188 -29.601562 33.863281 -32.054688 35.28125 -34.328125 C 36.695312 -36.609375 37.8125 -38.523438 38.625 -40.078125 C 39.4375 -41.628906 39.773438 -42.585938 39.640625 -42.953125 C 39.640625 -43.628906 40.019531 -43.96875 40.78125 -43.96875 C 41.375 -43.96875 42.03125 -43.753906 42.75 -43.328125 C 43.46875 -42.898438 44.109375 -42.28125 44.671875 -41.46875 C 45.234375 -40.65625 45.515625 -39.707031 45.515625 -38.625 Z M 45.515625 -38.625 "/></g></g></g><g fill="#000000" fill-opacity="1"><g transform="translate(97.005292, 228.066971)"><g><path d="M 23.640625 -30.125 C 25.796875 -30.125 27.4375 -29.378906 28.5625 -27.890625 C 29.6875 -26.398438 30.25 -24.53125 30.25 -22.28125 C 30.25 -20.53125 29.863281 -18.628906 29.09375 -16.578125 C 28.332031 -14.523438 27.273438 -12.5 25.921875 -10.5 C 24.578125 -8.5 23.035156 -6.675781 21.296875 -5.03125 C 19.566406 -3.382812 17.710938 -2.066406 15.734375 -1.078125 C 13.753906 -0.0859375 11.773438 0.40625 9.796875 0.40625 C 7.316406 0.40625 5.34375 -0.320312 3.875 -1.78125 C 2.414062 -3.25 1.6875 -5.242188 1.6875 -7.765625 C 1.6875 -9.660156 2.09375 -11.597656 2.90625 -13.578125 C 3.71875 -15.554688 4.773438 -17.457031 6.078125 -19.28125 C 7.378906 -21.101562 8.816406 -22.742188 10.390625 -24.203125 C 11.972656 -25.671875 13.5625 -26.820312 15.15625 -27.65625 C 16.757812 -28.488281 18.257812 -28.90625 19.65625 -28.90625 L 19.71875 -28.90625 C 20.21875 -29.257812 20.78125 -29.550781 21.40625 -29.78125 C 22.039062 -30.007812 22.785156 -30.125 23.640625 -30.125 Z M 11.546875 -4.453125 C 12.316406 -4.453125 13.195312 -4.890625 14.1875 -5.765625 C 15.175781 -6.648438 16.195312 -7.800781 17.25 -9.21875 C 18.3125 -10.632812 19.289062 -12.175781 20.1875 -13.84375 C 21.09375 -15.507812 21.828125 -17.160156 22.390625 -18.796875 C 22.953125 -20.441406 23.234375 -21.921875 23.234375 -23.234375 C 23.234375 -24.046875 23.128906 -24.707031 22.921875 -25.21875 C 22.722656 -25.738281 22.332031 -26.046875 21.75 -26.140625 C 20.300781 -25.410156 18.867188 -24.289062 17.453125 -22.78125 C 16.035156 -21.28125 14.738281 -19.59375 13.5625 -17.71875 C 12.394531 -15.851562 11.460938 -13.984375 10.765625 -12.109375 C 10.066406 -10.242188 9.695312 -8.613281 9.65625 -7.21875 C 9.65625 -5.375 10.285156 -4.453125 11.546875 -4.453125 Z M 11.546875 -4.453125 "/></g></g></g><g fill="#000000" fill-opacity="1"><g transform="translate(125.297469, 228.066971)"><g><path d="M 30.53125 -29.515625 C 31.25 -29.515625 31.941406 -29.320312 32.609375 -28.9375 C 33.285156 -28.550781 33.847656 -28.097656 34.296875 -27.578125 C 34.753906 -27.066406 34.984375 -26.585938 34.984375 -26.140625 C 34.984375 -25.816406 34.867188 -25.585938 34.640625 -25.453125 C 33.296875 -23.785156 31.988281 -21.679688 30.71875 -19.140625 C 29.457031 -16.597656 28.1875 -13.863281 26.90625 -10.9375 C 25.625 -8.007812 24.296875 -5.113281 22.921875 -2.25 C 21.546875 0.601562 20.070312 3.207031 18.5 5.5625 C 16.925781 7.925781 15.203125 9.816406 13.328125 11.234375 C 11.460938 12.660156 9.40625 13.375 7.15625 13.375 C 5.269531 13.375 3.679688 12.929688 2.390625 12.046875 C 1.109375 11.171875 0.144531 10.160156 -0.5 9.015625 C -1.15625 7.867188 -1.484375 6.867188 -1.484375 6.015625 C -1.484375 4.890625 -1.054688 4.328125 -0.203125 4.328125 C 0.242188 4.328125 0.578125 4.484375 0.796875 4.796875 C 1.023438 5.109375 1.265625 5.476562 1.515625 5.90625 C 1.765625 6.332031 2.101562 6.703125 2.53125 7.015625 C 2.957031 7.335938 3.597656 7.5 4.453125 7.5 C 6.160156 7.5 7.78125 6.8125 9.3125 5.4375 C 10.84375 4.0625 12.269531 2.316406 13.59375 0.203125 C 14.925781 -1.910156 16.15625 -4.125 17.28125 -6.4375 C 18.40625 -8.757812 19.375 -10.867188 20.1875 -12.765625 C 18.382812 -10.328125 16.5625 -8.140625 14.71875 -6.203125 C 12.875 -4.273438 11.097656 -2.757812 9.390625 -1.65625 C 7.679688 -0.550781 6.101562 0 4.65625 0 C 3.257812 0 2.28125 -0.492188 1.71875 -1.484375 C 1.15625 -2.472656 0.875 -3.554688 0.875 -4.734375 C 0.875 -6.347656 1.253906 -8.222656 2.015625 -10.359375 C 2.785156 -12.503906 3.765625 -14.691406 4.953125 -16.921875 C 6.148438 -19.148438 7.398438 -21.21875 8.703125 -23.125 C 10.015625 -25.039062 11.195312 -26.59375 12.25 -27.78125 C 13.3125 -28.976562 14.09375 -29.578125 14.59375 -29.578125 C 15.21875 -29.578125 15.84375 -29.363281 16.46875 -28.9375 C 17.101562 -28.507812 17.644531 -28.023438 18.09375 -27.484375 C 18.550781 -26.941406 18.78125 -26.445312 18.78125 -26 C 18.78125 -25.726562 18.710938 -25.523438 18.578125 -25.390625 C 17.492188 -24.035156 16.398438 -22.515625 15.296875 -20.828125 C 14.191406 -19.140625 13.1875 -17.453125 12.28125 -15.765625 C 11.382812 -14.078125 10.664062 -12.546875 10.125 -11.171875 C 9.582031 -9.796875 9.3125 -8.75 9.3125 -8.03125 C 9.3125 -7.351562 9.539062 -7.015625 10 -7.015625 C 10.582031 -7.015625 11.34375 -7.421875 12.28125 -8.234375 C 13.226562 -9.046875 14.285156 -10.101562 15.453125 -11.40625 C 16.628906 -12.71875 17.835938 -14.179688 19.078125 -15.796875 C 20.316406 -17.421875 21.519531 -19.046875 22.6875 -20.671875 C 24.664062 -23.367188 26.296875 -25.515625 27.578125 -27.109375 C 28.867188 -28.710938 29.851562 -29.515625 30.53125 -29.515625 Z M 30.53125 -29.515625 "/></g></g></g><g fill="#000000" fill-opacity="1"><g transform="translate(154.940114, 228.066971)"><g><path d="M 30.59375 -29.515625 C 31.21875 -29.515625 31.867188 -29.285156 32.546875 -28.828125 C 33.222656 -28.378906 33.796875 -27.882812 34.265625 -27.34375 C 34.742188 -26.8125 34.984375 -26.363281 34.984375 -26 C 34.984375 -25.769531 34.894531 -25.566406 34.71875 -25.390625 C 33.851562 -24.304688 32.90625 -22.929688 31.875 -21.265625 C 30.84375 -19.609375 29.828125 -17.8125 28.828125 -15.875 C 27.835938 -13.9375 26.9375 -12 26.125 -10.0625 C 25.320312 -8.125 24.671875 -6.320312 24.171875 -4.65625 C 23.679688 -2.988281 23.4375 -1.59375 23.4375 -0.46875 C 23.4375 -0.0195312 23.1875 0.203125 22.6875 0.203125 C 22.195312 0.203125 21.566406 -0.03125 20.796875 -0.5 C 20.035156 -0.976562 19.359375 -1.632812 18.765625 -2.46875 C 18.179688 -3.300781 17.890625 -4.234375 17.890625 -5.265625 C 17.890625 -6.117188 18.054688 -7.109375 18.390625 -8.234375 C 18.734375 -9.359375 19.128906 -10.53125 19.578125 -11.75 C 18.273438 -9.863281 16.847656 -8.019531 15.296875 -6.21875 C 13.742188 -4.414062 12.15625 -2.925781 10.53125 -1.75 C 8.914062 -0.582031 7.316406 0 5.734375 0 C 3.984375 0 2.710938 -0.503906 1.921875 -1.515625 C 1.140625 -2.523438 0.75 -3.820312 0.75 -5.40625 C 0.75 -7.15625 1.140625 -9.125 1.921875 -11.3125 C 2.710938 -13.5 3.816406 -15.691406 5.234375 -17.890625 C 6.648438 -20.097656 8.269531 -22.125 10.09375 -23.96875 C 11.914062 -25.820312 13.875 -27.320312 15.96875 -28.46875 C 18.0625 -29.613281 20.191406 -30.1875 22.359375 -30.1875 C 24.015625 -30.1875 25.171875 -29.742188 25.828125 -28.859375 C 26.484375 -27.984375 26.832031 -27.03125 26.875 -26 C 27.726562 -27.082031 28.484375 -27.9375 29.140625 -28.5625 C 29.796875 -29.195312 30.28125 -29.515625 30.59375 -29.515625 Z M 9.71875 -6.34375 C 10.757812 -6.34375 12.472656 -7.691406 14.859375 -10.390625 C 17.242188 -13.097656 20.125 -16.703125 23.5 -21.203125 L 24.78125 -23.09375 C 24.820312 -23.226562 24.84375 -23.363281 24.84375 -23.5 C 24.84375 -23.632812 24.84375 -23.75 24.84375 -23.84375 C 24.84375 -24.5625 24.640625 -25.144531 24.234375 -25.59375 C 23.835938 -26.039062 23.410156 -26.265625 22.953125 -26.265625 C 21.960938 -26.265625 20.835938 -25.757812 19.578125 -24.75 C 18.316406 -23.738281 17.066406 -22.441406 15.828125 -20.859375 C 14.597656 -19.285156 13.453125 -17.628906 12.390625 -15.890625 C 11.335938 -14.160156 10.484375 -12.539062 9.828125 -11.03125 C 9.171875 -9.53125 8.84375 -8.351562 8.84375 -7.5 C 8.84375 -6.726562 9.132812 -6.34375 9.71875 -6.34375 Z M 9.71875 -6.34375 "/></g></g></g><g fill="#000000" fill-opacity="1"><g transform="translate(184.582758, 228.066971)"><g><path d="M 30.65625 -29.515625 C 31.46875 -29.515625 32.242188 -29.234375 32.984375 -28.671875 C 33.734375 -28.109375 34.296875 -27.507812 34.671875 -26.875 C 35.054688 -26.25 35.09375 -25.800781 34.78125 -25.53125 C 33.289062 -23.863281 31.894531 -21.742188 30.59375 -19.171875 C 29.289062 -16.609375 27.992188 -13.863281 26.703125 -10.9375 C 25.421875 -8.007812 24.101562 -5.113281 22.75 -2.25 C 21.40625 0.601562 19.96875 3.207031 18.4375 5.5625 C 16.90625 7.925781 15.21875 9.816406 13.375 11.234375 C 11.53125 12.660156 9.457031 13.375 7.15625 13.375 C 5.269531 13.375 3.679688 12.929688 2.390625 12.046875 C 1.109375 11.171875 0.144531 10.160156 -0.5 9.015625 C -1.15625 7.867188 -1.484375 6.867188 -1.484375 6.015625 C -1.484375 4.890625 -1.054688 4.328125 -0.203125 4.328125 C 0.242188 4.328125 0.578125 4.484375 0.796875 4.796875 C 1.023438 5.109375 1.265625 5.476562 1.515625 5.90625 C 1.765625 6.332031 2.101562 6.703125 2.53125 7.015625 C 2.957031 7.335938 3.597656 7.5 4.453125 7.5 C 6.160156 7.5 7.78125 6.820312 9.3125 5.46875 C 10.84375 4.113281 12.269531 2.390625 13.59375 0.296875 C 14.925781 -1.796875 16.144531 -3.988281 17.25 -6.28125 C 18.351562 -8.570312 19.3125 -10.664062 20.125 -12.5625 C 18.820312 -10.625 17.367188 -8.6875 15.765625 -6.75 C 14.171875 -4.8125 12.515625 -3.203125 10.796875 -1.921875 C 9.085938 -0.640625 7.398438 0 5.734375 0 C 3.984375 0 2.710938 -0.503906 1.921875 -1.515625 C 1.140625 -2.523438 0.75 -3.820312 0.75 -5.40625 C 0.75 -7.15625 1.140625 -9.125 1.921875 -11.3125 C 2.710938 -13.5 3.816406 -15.691406 5.234375 -17.890625 C 6.648438 -20.097656 8.269531 -22.125 10.09375 -23.96875 C 11.914062 -25.820312 13.875 -27.320312 15.96875 -28.46875 C 18.0625 -29.613281 20.191406 -30.1875 22.359375 -30.1875 C 24.015625 -30.1875 25.171875 -29.742188 25.828125 -28.859375 C 26.484375 -27.984375 26.832031 -27.007812 26.875 -25.9375 C 27.507812 -26.925781 28.1875 -27.769531 28.90625 -28.46875 C 29.625 -29.164062 30.207031 -29.515625 30.65625 -29.515625 Z M 9.71875 -6.34375 C 10.84375 -6.34375 12.6875 -7.835938 15.25 -10.828125 C 17.820312 -13.828125 20.957031 -17.78125 24.65625 -22.6875 C 24.78125 -23.09375 24.84375 -23.476562 24.84375 -23.84375 C 24.84375 -24.5625 24.640625 -25.144531 24.234375 -25.59375 C 23.835938 -26.039062 23.410156 -26.265625 22.953125 -26.265625 C 21.960938 -26.265625 20.835938 -25.757812 19.578125 -24.75 C 18.316406 -23.738281 17.066406 -22.441406 15.828125 -20.859375 C 14.597656 -19.285156 13.453125 -17.628906 12.390625 -15.890625 C 11.335938 -14.160156 10.484375 -12.539062 9.828125 -11.03125 C 9.171875 -9.53125 8.84375 -8.351562 8.84375 -7.5 C 8.84375 -6.726562 9.132812 -6.34375 9.71875 -6.34375 Z M 9.71875 -6.34375 "/></g></g></g><g fill="#000000" fill-opacity="1"><g transform="translate(214.225402, 228.066971)"><g><path d="M 13.78125 -11.75 C 12.46875 -11.75 11.296875 -11.972656 10.265625 -12.421875 C 9.898438 -11.210938 9.71875 -10.109375 9.71875 -9.109375 C 9.71875 -7.847656 10.03125 -6.9375 10.65625 -6.375 C 11.289062 -5.8125 12.171875 -5.53125 13.296875 -5.53125 C 14.742188 -5.53125 16.148438 -5.957031 17.515625 -6.8125 C 18.890625 -7.675781 20.050781 -8.710938 21 -9.921875 C 21.226562 -10.285156 21.453125 -10.46875 21.671875 -10.46875 C 21.992188 -10.46875 22.273438 -10.285156 22.515625 -9.921875 C 22.765625 -9.566406 22.867188 -9.117188 22.828125 -8.578125 C 22.828125 -7.804688 22.453125 -6.914062 21.703125 -5.90625 C 20.960938 -4.894531 19.972656 -3.925781 18.734375 -3 C 17.503906 -2.082031 16.097656 -1.316406 14.515625 -0.703125 C 12.941406 -0.0976562 11.320312 0.203125 9.65625 0.203125 C 7.132812 0.203125 5.148438 -0.484375 3.703125 -1.859375 C 2.265625 -3.234375 1.546875 -5.15625 1.546875 -7.625 C 1.546875 -9.476562 1.960938 -11.4375 2.796875 -13.5 C 3.628906 -15.570312 4.734375 -17.597656 6.109375 -19.578125 C 7.484375 -21.566406 9.023438 -23.359375 10.734375 -24.953125 C 12.441406 -26.546875 14.1875 -27.828125 15.96875 -28.796875 C 17.75 -29.765625 19.445312 -30.25 21.0625 -30.25 C 22.195312 -30.25 23.289062 -30.007812 24.34375 -29.53125 C 25.40625 -29.0625 26.285156 -28.363281 26.984375 -27.4375 C 27.679688 -26.519531 28.03125 -25.363281 28.03125 -23.96875 C 28.03125 -22.53125 27.613281 -21.085938 26.78125 -19.640625 C 25.945312 -18.203125 24.832031 -16.882812 23.4375 -15.6875 C 22.039062 -14.5 20.5 -13.546875 18.8125 -12.828125 C 17.125 -12.109375 15.445312 -11.75 13.78125 -11.75 Z M 22.078125 -26.46875 C 21.265625 -26.46875 20.171875 -25.90625 18.796875 -24.78125 C 17.429688 -23.65625 16.039062 -22.191406 14.625 -20.390625 C 13.207031 -18.585938 12.046875 -16.695312 11.140625 -14.71875 C 11.273438 -14.675781 11.410156 -14.65625 11.546875 -14.65625 C 11.679688 -14.65625 11.816406 -14.65625 11.953125 -14.65625 C 13.210938 -14.65625 14.484375 -15.082031 15.765625 -15.9375 C 17.046875 -16.789062 18.226562 -17.835938 19.3125 -19.078125 C 20.394531 -20.316406 21.257812 -21.53125 21.90625 -22.71875 C 22.5625 -23.914062 22.890625 -24.851562 22.890625 -25.53125 C 22.890625 -26.15625 22.617188 -26.46875 22.078125 -26.46875 Z M 22.078125 -26.46875 "/></g></g></g></svg>